# xmcd
#
# Track frame offsets: 
#        150
#        18612
#        41395
#        59870
#        75572
#        91492
#        115307
#        135842
#        156587
#        182185
#        201815
#        215577
#        235080
#        253310
#        276200
#
# Disc length: 3973 seconds
#
# Revision: 0
# Processed by: cddbd v1.5.2PL0 Copyright (c) Steve Scherf et al.
# Submitted via: ExactAudioCopy v0.99pb4
#
DISCID=dd0f830f
DTITLE=Beanie Siegel - The B. Coming
DYEAR=2005
DGENRE=Hip-Hop
TTITLE0=Feel It In The Air (Feat. Melissa Jay)
TTITLE1=I Can't Go On This Way (feat. Young Chris and Freeway)
TTITLE2=One Shot Deal (feat. Redman)
TTITLE3=Gotta Have It (feat. Peedi Crakk and Twista)
TTITLE4=Don't Stop (feat. Snoop Dogg)
TTITLE5=Purple Rain (feat. Bun B)
TTITLE6=Oh Daddy (feat. Young Chris)
TTITLE7=Change (feat. Melissa Jay and Rell)
TTITLE8=Bread and Butter (feat. Grand Puba and Sadat X)
TTITLE9=Lord Have Mercy
TTITLE10=Flatline (feat. Peedi Crakk)
TTITLE11=Tales of A Hustler Pt.II  (feat. Oschino and Omillio Sparks)
TTITLE12=Look At Me Now (feat. Rell)
TTITLE13=It's On Now (feat. Jay-Z)
TTITLE14=Wanted (On The Run) (feat. Cam'ron)
EXTD=
EXTT0=
EXTT1=
EXTT2=
EXTT3=
EXTT4=
EXTT5=
EXTT6=
EXTT7=
EXTT8=
EXTT9=
EXTT10=
EXTT11=
EXTT12=
EXTT13=
EXTT14=
PLAYORDER=
